<svg width="32" height="32" viewBox="0 0 32 32" fill="none" xmlns="http://www.w3.org/2000/svg">
<g clip-path="url(#clip0_285_25)">
<path d="M18.0168 0.197039C18.4022 0.0687283 18.8176 0.060853 19.2077 0.17446L27.8659 2.69622C28.5884 2.90667 29.1317 3.50492 29.2717 4.24436L30.922 12.9608C30.9735 13.2323 30.968 13.5116 30.9061 13.781L29.0943 21.6612C29.0605 21.8082 29.0435 21.9585 29.0435 22.1093V29C29.0435 30.1046 28.148 31 27.0435 31H9.52174C8.41717 31 7.52174 30.1046 7.52174 29V22.8859C7.52174 22.2544 7.2235 21.66 6.71724 21.2825L2.00832 17.7714C1.39198 17.3119 1.09362 16.5397 1.24082 15.7851L1.98889 11.9504C2.17212 11.0112 2.99497 10.3333 3.95189 10.3333H5.98751C6.89252 10.3333 7.68475 9.7256 7.91922 8.85148L9.19942 4.07877C9.37351 3.42974 9.8619 2.91152 10.4995 2.69929L18.0168 0.197039Z" fill="#B22222"/>
<path d="M23.04 0H15.36C12.9844 0.00235293 10.7069 0.87718 9.02713 2.43253C7.34735 3.98788 6.40254 6.0967 6.4 8.2963H5.12C3.76209 8.2963 2.4598 8.79577 1.49961 9.68483C0.539427 10.5739 0 11.7797 0 13.037V17.3615C0.00114101 17.8999 0.199084 18.422 0.5616 18.843C0.592504 18.8788 0.625626 18.9129 0.6608 18.9452L6.4 24.1985V29.6296C6.4 30.2583 6.66971 30.8612 7.14981 31.3057C7.6299 31.7503 8.28105 32 8.96 32H26.88C27.559 32 28.2101 31.7503 28.6902 31.3057C29.1703 30.8612 29.44 30.2583 29.44 29.6296V23.8696L31.9008 15.8919C31.9665 15.6804 31.9999 15.4615 32 15.2415V8.2963C31.9975 6.0967 31.0526 3.98788 29.3729 2.43253C27.6931 0.87718 25.4156 0.00235293 23.04 0ZM29.44 15.2415L26.9296 23.3778C26.8965 23.4837 26.8798 23.5934 26.88 23.7037V29.6296H8.96V23.7037C8.95993 23.5469 8.92623 23.3916 8.86086 23.2469C8.79549 23.1022 8.69976 22.9709 8.5792 22.8607L2.56 17.3511V13.037C2.56 12.4084 2.82971 11.8055 3.30981 11.3609C3.7899 10.9164 4.44105 10.6667 5.12 10.6667H6.4V13.037C6.4 13.3514 6.53486 13.6528 6.7749 13.8751C7.01495 14.0974 7.34052 14.2222 7.68 14.2222C8.01948 14.2222 8.34505 14.0974 8.5851 13.8751C8.82514 13.6528 8.96 13.3514 8.96 13.037V8.2963C8.96 6.72464 9.63428 5.21736 10.8345 4.10603C12.0347 2.99471 13.6626 2.37037 15.36 2.37037H23.04C24.7374 2.37037 26.3652 2.99471 27.5655 4.10603C28.7657 5.21736 29.44 6.72464 29.44 8.2963V15.2415ZM23.6128 22.3941L20.7824 23.7037L23.6128 25.0133C23.9166 25.154 24.1477 25.4007 24.2551 25.699C24.3625 25.9974 24.3375 26.3231 24.1856 26.6044C24.0337 26.8858 23.7673 27.0997 23.445 27.1992C23.1228 27.2986 22.771 27.2755 22.4672 27.1348L17.92 25.0281L13.3728 27.1348C13.2224 27.2045 13.0586 27.246 12.8908 27.257C12.723 27.2681 12.5545 27.2484 12.395 27.1992C12.2354 27.1499 12.0879 27.072 11.9608 26.97C11.8337 26.868 11.7296 26.7437 11.6544 26.6044C11.5792 26.4651 11.5343 26.3135 11.5224 26.1581C11.5105 26.0028 11.5317 25.8468 11.5849 25.699C11.6381 25.5513 11.7222 25.4147 11.8324 25.297C11.9426 25.1794 12.0768 25.083 12.2272 25.0133L15.0576 23.7037L12.2272 22.3941C12.0768 22.3244 11.9426 22.228 11.8324 22.1104C11.7222 21.9927 11.6381 21.8561 11.5849 21.7084C11.5317 21.5606 11.5105 21.4046 11.5224 21.2493C11.5343 21.0939 11.5792 20.9423 11.6544 20.803C11.7296 20.6637 11.8337 20.5394 11.9608 20.4374C12.0879 20.3354 12.2354 20.2575 12.395 20.2082C12.7172 20.1088 13.069 20.1319 13.3728 20.2726L17.92 22.3793L22.4672 20.2726C22.6176 20.2029 22.7814 20.1614 22.9492 20.1504C23.117 20.1393 23.2855 20.159 23.445 20.2082C23.6046 20.2575 23.7521 20.3354 23.8792 20.4374C24.0063 20.5394 24.1104 20.6637 24.1856 20.803C24.2608 20.9423 24.3057 21.0939 24.3176 21.2493C24.3295 21.4046 24.3083 21.5606 24.2551 21.7084C24.2019 21.8561 24.1178 21.9927 24.0076 22.1104C23.8974 22.228 23.7632 22.3244 23.6128 22.3941Z" fill="black"/>
</g>
<defs>
<clipPath id="clip0_285_25">
<rect width="32" height="32" rx="2" fill="white"/>
</clipPath>
</defs>
</svg>
